<?xml version="1.0" encoding="UTF-8"?>
<svg width="100px" height="30px" viewBox="0 0 100 30" version="1.1" xmlns="http://www.w3.org/2000/svg" xmlns:xlink="http://www.w3.org/1999/xlink">
    <!-- Generator: Sketch 42 (36781) - http://www.bohemiancoding.com/sketch -->
    <title>Group 21</title>
    <desc>Created with Sketch.</desc>
    <defs></defs>
    <g id="Page-1" stroke="none" stroke-width="1" fill="none" fill-rule="evenodd">
        <g id="Group-21" fill-rule="nonzero" fill="#FFFFFF">
            <path d="M2,15 L11.8,15 C11.9,15 12,15 12,14.9 C12.1,14.8 13.1,13.3 12.8,10.8 L12.8,10.7 L12.8,10.6 C12.6,9.4 12.2,8 11.2,6.3 L11.1,6.1 C10.5,5.1 9.7,3.9 11.3,2.1 C11.4,2 11.4,1.8 11.3,1.7 C11.2,1.6 11,1.6 10.9,1.7 C9,3.9 10,5.5 10.6,6.5 L10.7,6.7 C11.7,8.3 12.1,9.6 12.2,10.8 C12.2,12 11,13 9.7,13 C8.3,13 7.1,12 7.1,10.8 C7.1,10.6 7,10.5 6.8,10.5 C6.6,10.5 6.5,10.6 6.5,10.8 C6.5,12 5.4,13 3.9,13 C2.5,13 1.3,12 1.3,10.8 L1.3,10.7 C1.3,9.3 1.8,8.5 2.5,7.6 C2.8,7.2 3,6.9 3.2,6.5 C5,3.6 3,1.7 3,1.7 C2.9,1.6 2.7,1.6 2.6,1.7 C2.5,1.8 2.5,2 2.6,2.1 C2.6,2.1 4.2,3.7 2.7,6.2 C2.5,6.6 2.4,6.8 2.2,7.1 C1.1,8.7 0.2,10 1.8,14.7 C1.8,14.9 1.9,15 2,15 Z M7.2,14.4 L7.2,12.3 C7.8,13 8.7,13.5 9.8,13.5 C10.9,13.5 11.8,13 12.4,12.3 C12.3,13.4 11.9,14.1 11.7,14.4 L7.2,14.4 L7.2,14.4 Z M4.1,13.5 C5.2,13.5 6.1,13 6.7,12.3 L6.7,14.4 L6.7,14.4 L2.3,14.4 C2.1,13.7 1.9,13.1 1.8,12.5 C2.3,13.1 3.1,13.5 4.1,13.5 Z" id="Shape"></path>
            <path d="M35.9,6.6 L34.7,6.6 L34.7,4.8 L34.7,4.7 L34.7,4.3 C34.7,3.3 33.9,2.6 33,2.6 C32.7,2.6 32.4,2.7 32.2,2.8 C31.9,2.4 31.4,2.1 30.8,2.1 C30.6,2.1 30.5,2.1 30.3,2.2 C30,1.8 29.5,1.6 29,1.6 C28.2,1.6 27.5,2.1 27.3,2.8 L27.2,2.8 C26.4,2.8 25.7,3.5 25.7,4.3 L25.7,6.3 C25.7,6.7 26,7 26.4,7 L26.6,7 L26.8,7 L26.8,8 L26.8,13.2 L26.8,13.4 C26.8,14.2 27.5,14.9 28.3,14.9 L33.2,14.9 C34,14.9 34.7,14.2 34.7,13.4 L34.7,13.2 L34.7,12.5 L35.9,12.5 C36.6,12.5 37.1,11.9 37.1,11.3 L37.1,7.9 C37.1,7.2 36.6,6.6 35.9,6.6 Z M33.2,14.5 L28.3,14.5 C27.8,14.5 27.3,14.1 27.3,13.5 L28.5,13.5 L30,13.5 L31.5,13.5 L33,13.5 L34.2,13.5 C34.1,14 33.7,14.5 33.2,14.5 Z M27.2,13 L27.2,8.1 C27.2,7.8 27.4,7.6 27.7,7.6 C28,7.6 28.2,7.8 28.2,8.1 L28.2,13 L27.2,13 Z M28.7,13 L28.7,8.1 C28.7,7.8 28.9,7.6 29.2,7.6 C29.5,7.6 29.7,7.8 29.7,8.1 L29.7,13 L28.7,13 Z M30.2,13 L30.2,8.1 C30.2,7.8 30.4,7.6 30.7,7.6 C31,7.6 31.2,7.8 31.2,8.1 L31.2,13 L30.2,13 Z M31.7,13 L31.7,8.1 C31.7,7.8 31.9,7.6 32.2,7.6 C32.5,7.6 32.7,7.8 32.7,8.1 L32.7,13 L31.7,13 Z M34.1,11.3 L34.1,12.3 L34.1,13 L33.1,13 L33.1,8.1 C33.1,7.8 33.3,7.6 33.6,7.6 C33.9,7.6 34.1,7.8 34.1,8.1 L34.1,11.3 Z M34.1,6.9 L34.1,7.2 C34,7.1 33.8,7.1 33.6,7.1 C33.3,7.1 33,7.2 32.9,7.4 C32.7,7.2 32.5,7.1 32.2,7.1 C31.9,7.1 31.6,7.2 31.5,7.4 C31.3,7.2 31.1,7.1 30.8,7.1 C30.5,7.1 30.2,7.2 30.1,7.4 C29.9,7.2 29.7,7.1 29.4,7.1 C29.1,7.1 28.8,7.2 28.7,7.4 C28.5,7.2 28.3,7.1 28,7.1 C27.8,7.1 27.7,7.2 27.5,7.2 L27.5,6.3 L27.5,6.3 L27.8,6.3 L28,6.3 C28.3,6.3 28.5,6.2 28.8,6 C29.1,6.3 29.6,6.5 30,6.5 C30.9,6.5 31.6,5.9 31.7,5 L34.2,5 L34.2,6.9 L34.1,6.9 Z M34.1,4.6 L31.4,4.6 C31.3,4.6 31.2,4.7 31.2,4.8 C31.2,5.5 30.6,6 30,6 C29.6,6 29.2,5.8 29,5.5 C29,5.4 28.9,5.4 28.8,5.4 C28.7,5.4 28.6,5.4 28.6,5.5 C28.5,5.7 28.2,5.8 28,5.8 L27.5,5.8 C27.4,5.8 27.2,5.8 27.1,5.7 L26.9,5.7 C26.8,5.7 26.8,5.8 26.8,5.9 L26.8,6.3 C26.8,6.4 26.7,6.5 26.6,6.5 L26.4,6.5 C26.3,6.5 26.2,6.4 26.2,6.3 L26.2,4.3 C26.2,3.8 26.6,3.3 27.2,3.3 L27.4,3.3 L27.6,3.3 C27.7,3.3 27.7,3.2 27.7,3.1 C27.8,2.5 28.4,2 29,2 C29.4,2 29.8,2.2 30.1,2.5 C30.2,2.6 30.3,2.6 30.4,2.6 C30.6,2.5 30.7,2.5 30.9,2.5 C31.4,2.5 31.8,2.8 32,3.2 C32,3.3 32.1,3.3 32.2,3.3 L32.4,3.3 C32.6,3.1 32.9,3 33.2,3 C33.9,3 34.4,3.6 34.4,4.2 C34.1,4.4 34.1,4.5 34.1,4.6 Z M34.6,8.1 L35.3,8.1 C35.4,8.1 35.5,8.2 35.5,8.3 L35.5,10.8 C35.5,10.9 35.4,11 35.3,11 L34.6,11 L34.6,8.1 Z M36.6,11.3 C36.6,11.7 36.3,12 35.9,12 L34.7,12 L34.7,11.5 L35.4,11.5 C35.8,11.5 36.1,11.2 36.1,10.8 L36.1,8.4 C36.1,8 35.8,7.7 35.4,7.7 L34.7,7.7 L34.7,7.1 L35.9,7.1 C36.3,7.1 36.6,7.4 36.6,7.8 L36.6,11.3 Z" id="Shape"></path>
            <circle id="Oval" cx="89.5" cy="10.7" r="0.5"></circle>
            <circle id="Oval" cx="96.3" cy="10.7" r="0.5"></circle>
            <path d="M96.3,5.5 C96.1,5.5 96,5.6 96,5.8 C96,5.9 96.2,6 96.3,6 C98,6 99.4,7.4 99.4,9.1 C99.4,10.8 98,12.2 96.3,12.2 C94.6,12.2 93.2,10.8 93.2,9.1 C93.2,8.9 93.1,8.8 92.9,8.8 L92.9,8.8 L92.9,8.8 C92.7,8.8 92.6,8.9 92.6,9.1 C92.6,10.8 91.2,12.2 89.5,12.2 C87.8,12.2 86.4,10.8 86.4,9.1 C86.4,7.4 87.8,6 89.5,6 C89.7,6 89.8,5.9 89.8,5.7 C89.8,5.5 89.7,5.4 89.5,5.4 C87.5,5.4 85.8,7 85.8,9.1 C85.8,11.1 87.4,12.8 89.5,12.8 C91,12.8 92.3,11.9 92.9,10.5 C93.4,11.8 94.8,12.8 96.3,12.8 C98.3,12.8 100,11.2 100,9.1 C100,7.1 98.4,5.5 96.3,5.5 Z" id="Shape"></path>
            <path d="M49,4.7 L49,4.7 L49.2,4.7 C49.3,4.7 49.3,4.6 49.3,4.5 L49.7,1.9 L51.7,3.2 L50.9,5 L50.3,4.9 L50.3,4.9 C50.2,4.9 50,5 50,5.1 C50,5.2 50.1,5.4 50.2,5.4 L50.7,5.5 L50,7 L50,7.1 L50,7.1 L50,14.7 C50,14.8 50.1,15 50.3,15 C50.4,15 50.6,14.9 50.6,14.7 L50.6,7.5 L53.7,8.3 L52.9,11.7 L52.9,11.9 C52.9,12 53,12 53.1,12 L53.2,12 L53.3,12 C53.4,12 53.4,11.9 53.4,11.8 L54.2,8.2 L54.2,8.2 L54.2,8 C54.2,7.9 54.1,7.9 54,7.9 L50.6,7.1 L50.6,7.1 L51.2,5.7 L53.2,6.1 L53.3,6.1 L53.4,6.1 C53.5,6.1 53.5,6 53.5,5.9 L53.5,5.7 L53.5,5.7 L52.4,3.2 C53.2,3.1 53.8,2.5 53.8,1.7 C53.8,0.8 53.1,0.1 52.2,0.1 C51.3,0.1 50.6,0.8 50.6,1.7 L50.6,2 L49.6,1.3 L49.6,1.3 C49.6,1.3 49.6,1.3 49.5,1.3 L49.5,1.3 L49.5,1.3 L49.4,1.3 L49.4,1.3 L49.4,1.3 L49.4,1.3 C49.4,1.3 49.4,1.3 49.4,1.4 L49.4,1.4 L48.9,4.4 L48.9,4.6 C48.8,4.6 48.9,4.7 49,4.7 Z M52.1,3.6 L52.9,5.4 L51.5,5.1 L52.1,3.6 Z M52.2,0.5 C52.8,0.5 53.3,1 53.3,1.6 C53.3,2.2 52.8,2.7 52.2,2.7 C51.6,2.7 51.1,2.2 51.1,1.6 C51.1,1 51.6,0.5 52.2,0.5 Z" id="Shape"></path>
            <polygon id="Shape" points="13.3 20.6 11 20.6 7.8 24.3 7.8 20.6 5.9 20.6 5.9 24.4 2.7 20.6 0.3 20.6 3.8 24.6 0 29.7 2.5 29.7 5.3 25.7 5.9 26.3 5.9 29.7 7.8 29.7 7.8 26.3 8.3 25.7 11.2 29.7 13.7 29.7 9.8 24.6"></polygon>
            <polygon id="Shape" points="26.7 29.7 28.7 29.7 28.7 22.3 32.2 22.3 32.2 29.7 34.2 29.7 34.2 20.6 26.7 20.6"></polygon>
            <polygon id="Shape" points="47.5 22.3 50.2 22.3 50.2 29.7 52.2 29.7 52.2 22.3 54.9 22.3 54.9 20.6 47.5 20.6"></polygon>
            <path d="M74.7,21.5 C74.4,21.2 74.1,21 73.7,20.8 C73.3,20.6 72.8,20.6 72.2,20.6 L68.1,20.6 L68.1,29.7 L70.1,29.7 L70.1,26.4 L72.2,26.4 C72.8,26.4 73.3,26.3 73.7,26.2 C74.1,26 74.4,25.8 74.7,25.5 C75,25.2 75.1,24.9 75.2,24.6 C75.3,24.3 75.4,23.9 75.4,23.5 C75.4,23.1 75.3,22.8 75.2,22.4 C75.1,22.1 74.9,21.8 74.7,21.5 Z M73.3,24.2 C73.2,24.4 73.1,24.5 72.9,24.6 C72.7,24.7 72.6,24.8 72.3,24.8 C72.1,24.8 71.9,24.9 71.6,24.9 L70,24.9 L70,22.2 L71.6,22.2 C71.8,22.2 72.1,22.2 72.3,22.3 C72.5,22.3 72.7,22.4 72.9,22.5 C73.1,22.6 73.2,22.7 73.3,22.9 C73.4,23.1 73.4,23.3 73.4,23.6 C73.4,23.9 73.4,24.1 73.3,24.2 Z" id="Shape"></path>
            <path d="M94.3,27.7 C94,28.1 93.5,28.3 92.9,28.3 C92.4,28.3 92.1,28.2 91.8,28 C91.5,27.8 91.2,27.6 91,27.3 C90.8,27 90.7,26.7 90.6,26.3 C90.5,25.9 90.5,25.6 90.5,25.2 C90.5,24.8 90.5,24.4 90.6,24 C90.7,23.6 90.8,23.3 91,23 C91.2,22.7 91.5,22.5 91.8,22.3 C92.1,22.1 92.5,22 92.9,22 C93.1,22 93.4,22 93.6,22.1 C93.8,22.2 94,22.3 94.2,22.4 C94.4,22.5 94.5,22.7 94.6,22.9 C94.7,23.1 94.8,23.3 94.8,23.5 L96.7,23.5 C96.6,23 96.5,22.5 96.3,22.1 C96.1,21.7 95.8,21.4 95.4,21.1 C95,20.8 94.6,20.6 94.2,20.5 C93.7,20.4 93.3,20.3 92.8,20.3 C92.1,20.3 91.5,20.4 90.9,20.7 C90.3,20.9 89.9,21.3 89.5,21.7 C89.1,22.1 88.8,22.6 88.6,23.2 C88.4,23.8 88.3,24.4 88.3,25.1 C88.3,25.8 88.4,26.4 88.6,27 C88.8,27.6 89.1,28.1 89.5,28.5 C89.9,28.9 90.3,29.3 90.9,29.5 C91.5,29.7 92.1,29.9 92.8,29.9 C93.4,29.9 93.9,29.8 94.3,29.6 C94.8,29.4 95.2,29.2 95.5,28.9 C95.8,28.6 96.1,28.2 96.3,27.7 C96.5,27.2 96.6,26.7 96.7,26.2 L95,26.2 C94.9,26.8 94.7,27.3 94.3,27.7 Z" id="Shape"></path>
            <path d="M74.5,2.4 C74.2,2.4 73.7,2.6 73.4,3.6 L72.8,5.8 C72.6,5.6 72.3,5.4 72,5.4 L72,5.4 L72,5.4 C71.6,5.4 71.3,5.6 71.2,5.9 L71.2,5.9 C71,5.6 70.7,5.5 70.4,5.4 L70.4,5.4 C70.4,5.4 70.4,5.4 70.3,5.4 C70.3,5.4 70.3,5.4 70.2,5.4 L70.2,5.4 L70.2,5.4 L70.2,5.4 L70.2,5.4 C70,5.4 69.8,5.5 69.7,5.7 L69.3,3.2 C69.3,3 69.2,2.7 69.2,2.6 C69.1,2.4 68.9,1.8 68.2,1.8 C67.9,1.8 67.7,1.9 67.4,2.2 C67.1,2.3 67,2.6 67,2.9 L67.5,9.1 C66.9,9.4 66.8,9.9 66.8,11 L66.8,11 C66.8,12 67.5,12.8 67.8,13.1 L67.8,14 C67.8,14.5 68.2,15 68.8,15 L73.2,15 C73.7,15 74.2,14.6 74.2,14 L74.2,13.1 C74.9,12.1 74.9,12 74.9,10 L74.9,9.6 L75.6,3.7 C75.6,3.3 75.6,3 75.4,2.8 C75.2,2.6 74.9,2.4 74.5,2.4 Z M71.4,6.6 C71.4,6.4 71.5,6.1 71.7,6 C71.8,5.9 71.9,5.9 72,5.9 C72.3,5.9 72.5,6.2 72.6,6.5 C72.6,6.5 72.6,6.6 72.7,6.6 L72.7,6.6 L72.7,9.3 C72.7,9.6 72.5,10 72.1,10 C71.8,10 71.5,9.6 71.5,9.3 L71.5,6.6 L71.4,6.6 Z M69.7,6.6 C69.7,6.4 69.8,6.2 69.9,6.1 C70,6 70.1,5.9 70.2,5.9 C70.5,5.9 70.7,6.2 70.8,6.5 C70.8,6.5 70.8,6.6 70.9,6.6 L70.9,6.6 L70.9,9.3 C70.9,9.6 70.7,10 70.3,10 C70.2,10 70,9.9 69.9,9.8 C70.2,9.5 70.4,9.3 70.5,9 C70.5,8.9 70.6,8.9 70.6,8.8 C70.8,8.3 70.6,7.5 70.1,7.2 C70,7.2 69.9,7.1 69.7,7.1 L69.7,6.6 L69.7,6.6 Z M67.7,2.3 C67.8,2.2 68,2.1 68.1,2.1 C68.3,2.1 68.4,2.1 68.6,2.6 C68.6,2.7 68.7,2.9 68.7,3.2 L69.2,6.4 L69.2,6.6 L69.2,7.4 C69.1,7.5 69,7.6 68.8,7.8 C68.6,8 68.4,8.4 67.9,8.8 L67.4,2.9 C67.5,2.7 67.6,2.5 67.7,2.3 Z M74.4,9.5 L74.4,9.5 L74.4,10 C74.4,11.9 74.4,11.9 73.7,12.8 L73.7,12.9 L73.7,13.9 C73.7,14.2 73.5,14.4 73.2,14.4 L68.8,14.4 C68.5,14.4 68.3,14.2 68.3,13.9 L68.3,12.9 C68.3,12.8 68.3,12.8 68.2,12.7 C68.2,12.7 67.3,12 67.3,10.9 C67.3,9.7 67.4,9.6 67.9,9.4 C68,9.4 68,9.3 68,9.3 C68.7,8.8 69.1,8.3 69.3,8 C69.4,7.9 69.5,7.8 69.6,7.7 L69.7,7.7 L69.9,7.7 L70,7.7 C70.3,7.8 70.4,8.3 70.3,8.6 C70.2,8.9 69.8,9.4 68.7,10.3 C68.6,10.4 68.6,10.5 68.7,10.6 C68.7,10.7 68.8,10.7 68.9,10.7 C68.9,10.7 69,10.7 69.1,10.6 C69.3,10.4 69.5,10.2 69.7,10 C69.9,10.3 70.2,10.4 70.5,10.4 C70.9,10.4 71.2,10.2 71.4,9.9 C71.6,10.2 71.9,10.4 72.3,10.4 C72.9,10.4 73.4,9.8 73.4,9.2 L73.4,6.6 L73.4,6.5 L73.4,6.5 L74.1,3.8 C74.2,3.5 74.4,3 74.7,3 C74.9,3 75.1,3 75.2,3.1 C75.3,3.2 75.3,3.4 75.3,3.6 L74.4,9.5 Z" id="Shape"></path>
        </g>
    </g>
</svg>